{
	"patcher" : 	{
		"fileversion" : 1,
		"rect" : [ 225.0, 195.0, 640.0, 480.0 ],
		"bglocked" : 0,
		"defrect" : [ 225.0, 195.0, 640.0, 480.0 ],
		"openrect" : [ 0.0, 0.0, 0.0, 0.0 ],
		"openinpresentation" : 0,
		"default_fontsize" : 12.0,
		"default_fontface" : 0,
		"default_fontname" : "Arial",
		"gridonopen" : 0,
		"gridsize" : [ 15.0, 15.0 ],
		"gridsnaponopen" : 0,
		"toolbarvisible" : 1,
		"boxanimatetime" : 200,
		"imprint" : 0,
		"enablehscroll" : 1,
		"enablevscroll" : 1,
		"devicewidth" : 0.0,
		"boxes" : [ 			{
				"box" : 				{
					"maxclass" : "button",
					"patching_rect" : [ 483.0, 106.0, 20.0, 20.0 ],
					"outlettype" : [ "bang" ],
					"id" : "obj-8",
					"numinlets" : 1,
					"numoutlets" : 1
				}

			}
, 			{
				"box" : 				{
					"maxclass" : "button",
					"patching_rect" : [ 447.0, 48.0, 20.0, 20.0 ],
					"outlettype" : [ "bang" ],
					"id" : "obj-6",
					"numinlets" : 1,
					"numoutlets" : 1
				}

			}
, 			{
				"box" : 				{
					"maxclass" : "newobj",
					"text" : "counter 16",
					"patching_rect" : [ 447.0, 76.0, 73.0, 20.0 ],
					"outlettype" : [ "int", "", "", "int" ],
					"fontname" : "Arial",
					"id" : "obj-2",
					"numinlets" : 5,
					"fontsize" : 12.0,
					"numoutlets" : 4
				}

			}
, 			{
				"box" : 				{
					"maxclass" : "message",
					"text" : "zlclear",
					"patching_rect" : [ 483.0, 133.0, 45.0, 18.0 ],
					"outlettype" : [ "" ],
					"fontname" : "Arial",
					"id" : "obj-3",
					"numinlets" : 2,
					"fontsize" : 12.0,
					"numoutlets" : 1
				}

			}
, 			{
				"box" : 				{
					"maxclass" : "inlet",
					"patching_rect" : [ 86.0, 26.0, 25.0, 25.0 ],
					"outlettype" : [ "bang" ],
					"id" : "obj-1",
					"numinlets" : 0,
					"numoutlets" : 1,
					"comment" : ""
				}

			}
, 			{
				"box" : 				{
					"maxclass" : "newobj",
					"text" : "zl iter 1",
					"patching_rect" : [ 361.0, 241.0, 49.0, 20.0 ],
					"outlettype" : [ "", "" ],
					"fontname" : "Arial",
					"id" : "obj-30",
					"numinlets" : 2,
					"fontsize" : 12.0,
					"numoutlets" : 2
				}

			}
, 			{
				"box" : 				{
					"maxclass" : "newobj",
					"text" : "prepend remove",
					"patching_rect" : [ 361.0, 268.0, 98.0, 20.0 ],
					"outlettype" : [ "" ],
					"fontname" : "Arial",
					"id" : "obj-32",
					"numinlets" : 1,
					"fontsize" : 12.0,
					"numoutlets" : 1
				}

			}
, 			{
				"box" : 				{
					"maxclass" : "comment",
					"text" : "keep track of clips already played.",
					"linecount" : 2,
					"patching_rect" : [ 418.0, 189.0, 109.0, 34.0 ],
					"fontname" : "Arial",
					"id" : "obj-33",
					"numinlets" : 1,
					"fontsize" : 12.0,
					"numoutlets" : 0
				}

			}
, 			{
				"box" : 				{
					"maxclass" : "newobj",
					"text" : "zl union",
					"patching_rect" : [ 361.0, 171.0, 52.0, 20.0 ],
					"outlettype" : [ "", "" ],
					"fontname" : "Arial",
					"id" : "obj-34",
					"numinlets" : 2,
					"fontsize" : 12.0,
					"numoutlets" : 2
				}

			}
, 			{
				"box" : 				{
					"maxclass" : "newobj",
					"text" : "zl reg",
					"patching_rect" : [ 361.0, 204.0, 40.0, 20.0 ],
					"outlettype" : [ "", "" ],
					"fontname" : "Arial",
					"id" : "obj-35",
					"numinlets" : 2,
					"fontsize" : 12.0,
					"numoutlets" : 2
				}

			}
, 			{
				"box" : 				{
					"maxclass" : "newobj",
					"text" : "r alreadyPlayed",
					"patching_rect" : [ 361.0, 142.0, 94.0, 20.0 ],
					"outlettype" : [ "" ],
					"fontname" : "Arial",
					"id" : "obj-36",
					"numinlets" : 0,
					"fontsize" : 12.0,
					"numoutlets" : 1
				}

			}
, 			{
				"box" : 				{
					"maxclass" : "newobj",
					"text" : "coll",
					"patching_rect" : [ 116.0, 330.0, 59.5, 20.0 ],
					"outlettype" : [ "", "", "", "" ],
					"fontname" : "Arial",
					"id" : "obj-27",
					"numinlets" : 1,
					"fontsize" : 12.0,
					"numoutlets" : 4,
					"saved_object_attributes" : 					{
						"embed" : 0
					}

				}

			}
, 			{
				"box" : 				{
					"maxclass" : "message",
					"text" : "dump",
					"patching_rect" : [ 68.0, 298.0, 41.0, 18.0 ],
					"outlettype" : [ "" ],
					"fontname" : "Arial",
					"id" : "obj-10",
					"numinlets" : 2,
					"fontsize" : 12.0,
					"numoutlets" : 1
				}

			}
, 			{
				"box" : 				{
					"maxclass" : "newobj",
					"text" : "t b b s",
					"patching_rect" : [ 89.0, 263.0, 46.0, 20.0 ],
					"outlettype" : [ "bang", "bang", "" ],
					"fontname" : "Arial",
					"id" : "obj-29",
					"numinlets" : 1,
					"fontsize" : 12.0,
					"numoutlets" : 3
				}

			}
, 			{
				"box" : 				{
					"maxclass" : "message",
					"text" : "store pist08-mel_Seq01.wav 3 0 171 21 151 0 169. 2.84 427.334869 0.055006 0.44178 0. 493.372406",
					"linecount" : 3,
					"patching_rect" : [ 87.0, 179.0, 219.0, 46.0 ],
					"outlettype" : [ "" ],
					"fontname" : "Arial",
					"id" : "obj-26",
					"numinlets" : 2,
					"fontsize" : 12.0,
					"numoutlets" : 1
				}

			}
, 			{
				"box" : 				{
					"maxclass" : "newobj",
					"text" : "t b b l",
					"patching_rect" : [ 87.0, 113.0, 46.0, 20.0 ],
					"outlettype" : [ "bang", "bang", "" ],
					"fontname" : "Arial",
					"id" : "obj-16",
					"numinlets" : 1,
					"fontsize" : 12.0,
					"numoutlets" : 3
				}

			}
, 			{
				"box" : 				{
					"maxclass" : "message",
					"text" : "prepend store pist08-mel_Seq01.wav",
					"linecount" : 2,
					"patching_rect" : [ 87.0, 143.0, 129.5, 32.0 ],
					"outlettype" : [ "" ],
					"fontname" : "Arial",
					"id" : "obj-14",
					"numinlets" : 2,
					"fontsize" : 12.0,
					"numoutlets" : 1
				}

			}
, 			{
				"box" : 				{
					"maxclass" : "message",
					"text" : "prepend store $1",
					"patching_rect" : [ 144.0, 117.0, 101.0, 18.0 ],
					"outlettype" : [ "" ],
					"fontname" : "Arial",
					"id" : "obj-11",
					"numinlets" : 2,
					"fontsize" : 12.0,
					"numoutlets" : 1
				}

			}
, 			{
				"box" : 				{
					"maxclass" : "message",
					"text" : "dump",
					"patching_rect" : [ 87.0, 64.0, 36.0, 16.0 ],
					"outlettype" : [ "" ],
					"fontname" : "Arial",
					"id" : "obj-18",
					"numinlets" : 2,
					"fontsize" : 10.0,
					"numoutlets" : 1
				}

			}
, 			{
				"box" : 				{
					"maxclass" : "newobj",
					"text" : "coll sampleDB.txt",
					"patching_rect" : [ 87.0, 90.0, 88.0, 18.0 ],
					"outlettype" : [ "", "", "", "" ],
					"fontname" : "Arial",
					"id" : "obj-22",
					"numinlets" : 1,
					"fontsize" : 10.0,
					"numoutlets" : 4,
					"saved_object_attributes" : 					{
						"embed" : 0
					}

				}

			}
, 			{
				"box" : 				{
					"maxclass" : "outlet",
					"patching_rect" : [ 96.0, 378.0, 25.0, 25.0 ],
					"id" : "obj-37",
					"numinlets" : 1,
					"numoutlets" : 0,
					"comment" : ""
				}

			}
, 			{
				"box" : 				{
					"maxclass" : "outlet",
					"patching_rect" : [ 146.0, 375.0, 25.0, 25.0 ],
					"id" : "obj-38",
					"numinlets" : 1,
					"numoutlets" : 0,
					"comment" : ""
				}

			}
 ],
		"lines" : [ 			{
				"patchline" : 				{
					"source" : [ "obj-3", 0 ],
					"destination" : [ "obj-35", 0 ],
					"hidden" : 0,
					"midpoints" : [  ]
				}

			}
, 			{
				"patchline" : 				{
					"source" : [ "obj-1", 0 ],
					"destination" : [ "obj-18", 0 ],
					"hidden" : 0,
					"midpoints" : [  ]
				}

			}
, 			{
				"patchline" : 				{
					"source" : [ "obj-11", 0 ],
					"destination" : [ "obj-14", 1 ],
					"hidden" : 0,
					"midpoints" : [ 153.5, 136.0, 207.0, 136.0 ]
				}

			}
, 			{
				"patchline" : 				{
					"source" : [ "obj-14", 0 ],
					"destination" : [ "obj-26", 0 ],
					"hidden" : 0,
					"midpoints" : [  ]
				}

			}
, 			{
				"patchline" : 				{
					"source" : [ "obj-16", 2 ],
					"destination" : [ "obj-26", 1 ],
					"hidden" : 0,
					"midpoints" : [ 123.5, 139.0, 227.0, 139.0, 227.0, 166.0, 296.5, 166.0 ]
				}

			}
, 			{
				"patchline" : 				{
					"source" : [ "obj-16", 1 ],
					"destination" : [ "obj-14", 0 ],
					"hidden" : 0,
					"midpoints" : [  ]
				}

			}
, 			{
				"patchline" : 				{
					"source" : [ "obj-16", 0 ],
					"destination" : [ "obj-26", 0 ],
					"hidden" : 0,
					"midpoints" : [ 96.5, 133.0, 74.0, 133.0, 74.0, 175.0, 96.5, 175.0 ]
				}

			}
, 			{
				"patchline" : 				{
					"source" : [ "obj-26", 0 ],
					"destination" : [ "obj-29", 0 ],
					"hidden" : 0,
					"midpoints" : [  ]
				}

			}
, 			{
				"patchline" : 				{
					"source" : [ "obj-29", 0 ],
					"destination" : [ "obj-10", 0 ],
					"hidden" : 0,
					"midpoints" : [  ]
				}

			}
, 			{
				"patchline" : 				{
					"source" : [ "obj-18", 0 ],
					"destination" : [ "obj-22", 0 ],
					"hidden" : 0,
					"midpoints" : [  ]
				}

			}
, 			{
				"patchline" : 				{
					"source" : [ "obj-29", 2 ],
					"destination" : [ "obj-27", 0 ],
					"hidden" : 0,
					"midpoints" : [  ]
				}

			}
, 			{
				"patchline" : 				{
					"source" : [ "obj-10", 0 ],
					"destination" : [ "obj-27", 0 ],
					"hidden" : 0,
					"midpoints" : [  ]
				}

			}
, 			{
				"patchline" : 				{
					"source" : [ "obj-34", 0 ],
					"destination" : [ "obj-35", 0 ],
					"hidden" : 0,
					"midpoints" : [  ]
				}

			}
, 			{
				"patchline" : 				{
					"source" : [ "obj-35", 0 ],
					"destination" : [ "obj-34", 1 ],
					"hidden" : 0,
					"midpoints" : [ 370.5, 232.0, 416.0, 232.0, 416.0, 166.0, 403.5, 166.0 ]
				}

			}
, 			{
				"patchline" : 				{
					"source" : [ "obj-36", 0 ],
					"destination" : [ "obj-34", 0 ],
					"hidden" : 0,
					"midpoints" : [  ]
				}

			}
, 			{
				"patchline" : 				{
					"source" : [ "obj-30", 0 ],
					"destination" : [ "obj-32", 0 ],
					"hidden" : 0,
					"midpoints" : [  ]
				}

			}
, 			{
				"patchline" : 				{
					"source" : [ "obj-35", 0 ],
					"destination" : [ "obj-30", 0 ],
					"hidden" : 0,
					"midpoints" : [  ]
				}

			}
, 			{
				"patchline" : 				{
					"source" : [ "obj-29", 1 ],
					"destination" : [ "obj-35", 0 ],
					"hidden" : 0,
					"midpoints" : [ 112.0, 285.0, 348.0, 285.0, 348.0, 201.0, 370.5, 201.0 ]
				}

			}
, 			{
				"patchline" : 				{
					"source" : [ "obj-32", 0 ],
					"destination" : [ "obj-27", 0 ],
					"hidden" : 0,
					"midpoints" : [  ]
				}

			}
, 			{
				"patchline" : 				{
					"source" : [ "obj-36", 0 ],
					"destination" : [ "obj-6", 0 ],
					"hidden" : 0,
					"midpoints" : [ 370.5, 162.0, 348.0, 162.0, 348.0, 45.0, 456.5, 45.0 ]
				}

			}
, 			{
				"patchline" : 				{
					"source" : [ "obj-2", 2 ],
					"destination" : [ "obj-8", 0 ],
					"hidden" : 0,
					"midpoints" : [  ]
				}

			}
, 			{
				"patchline" : 				{
					"source" : [ "obj-6", 0 ],
					"destination" : [ "obj-2", 0 ],
					"hidden" : 0,
					"midpoints" : [  ]
				}

			}
, 			{
				"patchline" : 				{
					"source" : [ "obj-8", 0 ],
					"destination" : [ "obj-3", 0 ],
					"hidden" : 0,
					"midpoints" : [  ]
				}

			}
, 			{
				"patchline" : 				{
					"source" : [ "obj-22", 0 ],
					"destination" : [ "obj-16", 0 ],
					"hidden" : 0,
					"midpoints" : [  ]
				}

			}
, 			{
				"patchline" : 				{
					"source" : [ "obj-27", 0 ],
					"destination" : [ "obj-37", 0 ],
					"hidden" : 0,
					"midpoints" : [  ]
				}

			}
, 			{
				"patchline" : 				{
					"source" : [ "obj-27", 1 ],
					"destination" : [ "obj-38", 0 ],
					"hidden" : 0,
					"midpoints" : [  ]
				}

			}
 ]
	}

}
