{
	"patcher" : 	{
		"fileversion" : 1,
		"rect" : [ 223.0, 188.0, 847.0, 480.0 ],
		"bglocked" : 0,
		"defrect" : [ 223.0, 188.0, 847.0, 480.0 ],
		"openrect" : [ 0.0, 0.0, 0.0, 0.0 ],
		"openinpresentation" : 0,
		"default_fontsize" : 12.0,
		"default_fontface" : 0,
		"default_fontname" : "Arial",
		"gridonopen" : 0,
		"gridsize" : [ 15.0, 15.0 ],
		"gridsnaponopen" : 0,
		"toolbarvisible" : 1,
		"boxanimatetime" : 200,
		"imprint" : 0,
		"enablehscroll" : 1,
		"enablevscroll" : 1,
		"devicewidth" : 0.0,
		"boxes" : [ 			{
				"box" : 				{
					"maxclass" : "newobj",
					"text" : "* 1.",
					"fontname" : "Arial",
					"id" : "obj-3",
					"numinlets" : 2,
					"fontsize" : 12.0,
					"numoutlets" : 1,
					"patching_rect" : [ 726.0, 162.0, 32.5, 20.0 ],
					"outlettype" : [ "float" ]
				}

			}
, 			{
				"box" : 				{
					"maxclass" : "newobj",
					"text" : "* 1.",
					"fontname" : "Arial",
					"id" : "obj-4",
					"numinlets" : 2,
					"fontsize" : 12.0,
					"numoutlets" : 1,
					"patching_rect" : [ 671.0, 162.0, 32.5, 20.0 ],
					"outlettype" : [ "float" ]
				}

			}
, 			{
				"box" : 				{
					"maxclass" : "newobj",
					"text" : "* 1.",
					"fontname" : "Arial",
					"id" : "obj-5",
					"numinlets" : 2,
					"fontsize" : 12.0,
					"numoutlets" : 1,
					"patching_rect" : [ 611.0, 162.0, 32.5, 20.0 ],
					"outlettype" : [ "float" ]
				}

			}
, 			{
				"box" : 				{
					"maxclass" : "newobj",
					"text" : "* 1.",
					"fontname" : "Arial",
					"id" : "obj-6",
					"numinlets" : 2,
					"fontsize" : 12.0,
					"numoutlets" : 1,
					"patching_rect" : [ 551.0, 162.0, 32.5, 20.0 ],
					"outlettype" : [ "float" ]
				}

			}
, 			{
				"box" : 				{
					"maxclass" : "newobj",
					"text" : "* 1.",
					"fontname" : "Arial",
					"id" : "obj-7",
					"numinlets" : 2,
					"fontsize" : 12.0,
					"numoutlets" : 1,
					"patching_rect" : [ 488.0, 162.0, 32.5, 20.0 ],
					"outlettype" : [ "float" ]
				}

			}
, 			{
				"box" : 				{
					"maxclass" : "newobj",
					"text" : "* 1.",
					"fontname" : "Arial",
					"id" : "obj-8",
					"numinlets" : 2,
					"fontsize" : 12.0,
					"numoutlets" : 1,
					"patching_rect" : [ 439.0, 162.0, 32.5, 20.0 ],
					"outlettype" : [ "float" ]
				}

			}
, 			{
				"box" : 				{
					"maxclass" : "flonum",
					"fontname" : "Arial",
					"id" : "obj-9",
					"numinlets" : 1,
					"fontsize" : 12.0,
					"numoutlets" : 2,
					"patching_rect" : [ 698.0, 99.0, 50.0, 20.0 ],
					"outlettype" : [ "float", "bang" ]
				}

			}
, 			{
				"box" : 				{
					"maxclass" : "flonum",
					"fontname" : "Arial",
					"id" : "obj-10",
					"numinlets" : 1,
					"fontsize" : 12.0,
					"numoutlets" : 2,
					"patching_rect" : [ 611.0, 116.0, 50.0, 20.0 ],
					"outlettype" : [ "float", "bang" ]
				}

			}
, 			{
				"box" : 				{
					"maxclass" : "flonum",
					"fontname" : "Arial",
					"id" : "obj-11",
					"numinlets" : 1,
					"fontsize" : 12.0,
					"numoutlets" : 2,
					"patching_rect" : [ 664.0, 133.0, 50.0, 20.0 ],
					"outlettype" : [ "float", "bang" ]
				}

			}
, 			{
				"box" : 				{
					"maxclass" : "flonum",
					"fontname" : "Arial",
					"id" : "obj-12",
					"numinlets" : 1,
					"fontsize" : 12.0,
					"numoutlets" : 2,
					"patching_rect" : [ 554.0, 126.0, 50.0, 20.0 ],
					"outlettype" : [ "float", "bang" ]
				}

			}
, 			{
				"box" : 				{
					"maxclass" : "flonum",
					"fontname" : "Arial",
					"id" : "obj-14",
					"numinlets" : 1,
					"fontsize" : 12.0,
					"numoutlets" : 2,
					"patching_rect" : [ 503.0, 100.0, 50.0, 20.0 ],
					"outlettype" : [ "float", "bang" ]
				}

			}
, 			{
				"box" : 				{
					"maxclass" : "flonum",
					"fontname" : "Arial",
					"id" : "obj-15",
					"numinlets" : 1,
					"fontsize" : 12.0,
					"numoutlets" : 2,
					"patching_rect" : [ 439.0, 120.0, 50.0, 20.0 ],
					"outlettype" : [ "float", "bang" ]
				}

			}
, 			{
				"box" : 				{
					"maxclass" : "inlet",
					"id" : "obj-16",
					"numinlets" : 0,
					"numoutlets" : 1,
					"patching_rect" : [ 439.0, 39.0, 25.0, 25.0 ],
					"outlettype" : [ "float" ],
					"comment" : ""
				}

			}
, 			{
				"box" : 				{
					"maxclass" : "inlet",
					"id" : "obj-17",
					"numinlets" : 0,
					"numoutlets" : 1,
					"patching_rect" : [ 503.0, 39.0, 25.0, 25.0 ],
					"outlettype" : [ "float" ],
					"comment" : ""
				}

			}
, 			{
				"box" : 				{
					"maxclass" : "inlet",
					"id" : "obj-18",
					"numinlets" : 0,
					"numoutlets" : 1,
					"patching_rect" : [ 554.0, 39.0, 25.0, 25.0 ],
					"outlettype" : [ "float" ],
					"comment" : ""
				}

			}
, 			{
				"box" : 				{
					"maxclass" : "inlet",
					"id" : "obj-19",
					"numinlets" : 0,
					"numoutlets" : 1,
					"patching_rect" : [ 611.0, 39.0, 25.0, 25.0 ],
					"outlettype" : [ "float" ],
					"comment" : ""
				}

			}
, 			{
				"box" : 				{
					"maxclass" : "inlet",
					"id" : "obj-20",
					"numinlets" : 0,
					"numoutlets" : 1,
					"patching_rect" : [ 664.0, 39.0, 25.0, 25.0 ],
					"outlettype" : [ "float" ],
					"comment" : ""
				}

			}
, 			{
				"box" : 				{
					"maxclass" : "inlet",
					"id" : "obj-21",
					"numinlets" : 0,
					"numoutlets" : 1,
					"patching_rect" : [ 698.0, 39.0, 25.0, 25.0 ],
					"outlettype" : [ "float" ],
					"comment" : ""
				}

			}
, 			{
				"box" : 				{
					"maxclass" : "newobj",
					"text" : "expr $f1+$f2+$f3+$f4+$f5+$f6+$f7",
					"fontname" : "Arial",
					"id" : "obj-1",
					"numinlets" : 7,
					"fontsize" : 12.0,
					"numoutlets" : 1,
					"patching_rect" : [ 472.0, 257.0, 196.0, 20.0 ],
					"outlettype" : [ "" ]
				}

			}
, 			{
				"box" : 				{
					"maxclass" : "comment",
					"text" : "Calculate Length:",
					"fontname" : "Arial",
					"id" : "obj-121",
					"numinlets" : 1,
					"fontsize" : 12.0,
					"numoutlets" : 0,
					"patching_rect" : [ 44.0, 14.0, 113.0, 20.0 ]
				}

			}
, 			{
				"box" : 				{
					"maxclass" : "newobj",
					"text" : "sqrt",
					"fontname" : "Arial",
					"id" : "obj-138",
					"numinlets" : 1,
					"fontsize" : 12.0,
					"numoutlets" : 1,
					"patching_rect" : [ 472.0, 288.0, 31.0, 20.0 ],
					"outlettype" : [ "float" ]
				}

			}
, 			{
				"box" : 				{
					"maxclass" : "newobj",
					"text" : "expr $f1+$f2+$f3+$f4+$f5+$f6+$f7",
					"fontname" : "Arial",
					"id" : "obj-133",
					"numinlets" : 7,
					"fontsize" : 12.0,
					"numoutlets" : 1,
					"patching_rect" : [ 131.0, 227.0, 196.0, 20.0 ],
					"outlettype" : [ "" ]
				}

			}
, 			{
				"box" : 				{
					"maxclass" : "newobj",
					"text" : "* 1.",
					"fontname" : "Arial",
					"id" : "obj-131",
					"numinlets" : 2,
					"fontsize" : 12.0,
					"numoutlets" : 1,
					"patching_rect" : [ 381.0, 163.0, 32.5, 20.0 ],
					"outlettype" : [ "float" ]
				}

			}
, 			{
				"box" : 				{
					"maxclass" : "newobj",
					"text" : "* 1.",
					"fontname" : "Arial",
					"id" : "obj-130",
					"numinlets" : 2,
					"fontsize" : 12.0,
					"numoutlets" : 1,
					"patching_rect" : [ 337.0, 163.0, 32.5, 20.0 ],
					"outlettype" : [ "float" ]
				}

			}
, 			{
				"box" : 				{
					"maxclass" : "newobj",
					"text" : "* 1.",
					"fontname" : "Arial",
					"id" : "obj-129",
					"numinlets" : 2,
					"fontsize" : 12.0,
					"numoutlets" : 1,
					"patching_rect" : [ 282.0, 163.0, 32.5, 20.0 ],
					"outlettype" : [ "float" ]
				}

			}
, 			{
				"box" : 				{
					"maxclass" : "newobj",
					"text" : "* 1.",
					"fontname" : "Arial",
					"id" : "obj-128",
					"numinlets" : 2,
					"fontsize" : 12.0,
					"numoutlets" : 1,
					"patching_rect" : [ 222.0, 163.0, 32.5, 20.0 ],
					"outlettype" : [ "float" ]
				}

			}
, 			{
				"box" : 				{
					"maxclass" : "newobj",
					"text" : "* 1.",
					"fontname" : "Arial",
					"id" : "obj-127",
					"numinlets" : 2,
					"fontsize" : 12.0,
					"numoutlets" : 1,
					"patching_rect" : [ 162.0, 163.0, 32.5, 20.0 ],
					"outlettype" : [ "float" ]
				}

			}
, 			{
				"box" : 				{
					"maxclass" : "newobj",
					"text" : "* 1.",
					"fontname" : "Arial",
					"id" : "obj-126",
					"numinlets" : 2,
					"fontsize" : 12.0,
					"numoutlets" : 1,
					"patching_rect" : [ 99.0, 163.0, 32.5, 20.0 ],
					"outlettype" : [ "float" ]
				}

			}
, 			{
				"box" : 				{
					"maxclass" : "newobj",
					"text" : "* 1.",
					"fontname" : "Arial",
					"id" : "obj-122",
					"numinlets" : 2,
					"fontsize" : 12.0,
					"numoutlets" : 1,
					"patching_rect" : [ 50.0, 163.0, 32.5, 20.0 ],
					"outlettype" : [ "float" ]
				}

			}
, 			{
				"box" : 				{
					"maxclass" : "flonum",
					"fontname" : "Arial",
					"id" : "obj-91",
					"numinlets" : 1,
					"fontsize" : 12.0,
					"numoutlets" : 2,
					"patching_rect" : [ 309.0, 100.0, 50.0, 20.0 ],
					"outlettype" : [ "float", "bang" ]
				}

			}
, 			{
				"box" : 				{
					"maxclass" : "flonum",
					"fontname" : "Arial",
					"id" : "obj-89",
					"numinlets" : 1,
					"fontsize" : 12.0,
					"numoutlets" : 2,
					"patching_rect" : [ 222.0, 117.0, 50.0, 20.0 ],
					"outlettype" : [ "float", "bang" ]
				}

			}
, 			{
				"box" : 				{
					"maxclass" : "flonum",
					"fontname" : "Arial",
					"id" : "obj-87",
					"numinlets" : 1,
					"fontsize" : 12.0,
					"numoutlets" : 2,
					"patching_rect" : [ 275.0, 134.0, 50.0, 20.0 ],
					"outlettype" : [ "float", "bang" ]
				}

			}
, 			{
				"box" : 				{
					"maxclass" : "flonum",
					"fontname" : "Arial",
					"id" : "obj-85",
					"numinlets" : 1,
					"fontsize" : 12.0,
					"numoutlets" : 2,
					"patching_rect" : [ 165.0, 127.0, 50.0, 20.0 ],
					"outlettype" : [ "float", "bang" ]
				}

			}
, 			{
				"box" : 				{
					"maxclass" : "flonum",
					"fontname" : "Arial",
					"id" : "obj-83",
					"numinlets" : 1,
					"fontsize" : 12.0,
					"numoutlets" : 2,
					"patching_rect" : [ 380.0, 120.0, 50.0, 20.0 ],
					"outlettype" : [ "float", "bang" ]
				}

			}
, 			{
				"box" : 				{
					"maxclass" : "flonum",
					"fontname" : "Arial",
					"id" : "obj-81",
					"numinlets" : 1,
					"fontsize" : 12.0,
					"numoutlets" : 2,
					"patching_rect" : [ 114.0, 101.0, 50.0, 20.0 ],
					"outlettype" : [ "float", "bang" ]
				}

			}
, 			{
				"box" : 				{
					"maxclass" : "flonum",
					"fontname" : "Arial",
					"id" : "obj-77",
					"numinlets" : 1,
					"fontsize" : 12.0,
					"numoutlets" : 2,
					"patching_rect" : [ 50.0, 121.0, 50.0, 20.0 ],
					"outlettype" : [ "float", "bang" ]
				}

			}
, 			{
				"box" : 				{
					"maxclass" : "inlet",
					"id" : "obj-139",
					"numinlets" : 0,
					"numoutlets" : 1,
					"patching_rect" : [ 50.0, 40.0, 25.0, 25.0 ],
					"outlettype" : [ "float" ],
					"comment" : ""
				}

			}
, 			{
				"box" : 				{
					"maxclass" : "inlet",
					"id" : "obj-140",
					"numinlets" : 0,
					"numoutlets" : 1,
					"patching_rect" : [ 114.0, 40.0, 25.0, 25.0 ],
					"outlettype" : [ "float" ],
					"comment" : ""
				}

			}
, 			{
				"box" : 				{
					"maxclass" : "inlet",
					"id" : "obj-141",
					"numinlets" : 0,
					"numoutlets" : 1,
					"patching_rect" : [ 165.0, 40.0, 25.0, 25.0 ],
					"outlettype" : [ "float" ],
					"comment" : ""
				}

			}
, 			{
				"box" : 				{
					"maxclass" : "inlet",
					"id" : "obj-142",
					"numinlets" : 0,
					"numoutlets" : 1,
					"patching_rect" : [ 222.0, 40.0, 25.0, 25.0 ],
					"outlettype" : [ "float" ],
					"comment" : ""
				}

			}
, 			{
				"box" : 				{
					"maxclass" : "inlet",
					"id" : "obj-143",
					"numinlets" : 0,
					"numoutlets" : 1,
					"patching_rect" : [ 275.0, 40.0, 25.0, 25.0 ],
					"outlettype" : [ "float" ],
					"comment" : ""
				}

			}
, 			{
				"box" : 				{
					"maxclass" : "inlet",
					"id" : "obj-144",
					"numinlets" : 0,
					"numoutlets" : 1,
					"patching_rect" : [ 309.0, 40.0, 25.0, 25.0 ],
					"outlettype" : [ "float" ],
					"comment" : ""
				}

			}
, 			{
				"box" : 				{
					"maxclass" : "inlet",
					"id" : "obj-145",
					"numinlets" : 0,
					"numoutlets" : 1,
					"patching_rect" : [ 380.0, 40.0, 25.0, 25.0 ],
					"outlettype" : [ "float" ],
					"comment" : ""
				}

			}
, 			{
				"box" : 				{
					"maxclass" : "outlet",
					"id" : "obj-146",
					"numinlets" : 1,
					"numoutlets" : 0,
					"patching_rect" : [ 472.0, 316.0, 25.0, 25.0 ],
					"comment" : ""
				}

			}
 ],
		"lines" : [ 			{
				"patchline" : 				{
					"source" : [ "obj-77", 0 ],
					"destination" : [ "obj-122", 1 ],
					"hidden" : 0,
					"midpoints" : [  ]
				}

			}
, 			{
				"patchline" : 				{
					"source" : [ "obj-77", 0 ],
					"destination" : [ "obj-122", 0 ],
					"hidden" : 0,
					"midpoints" : [  ]
				}

			}
, 			{
				"patchline" : 				{
					"source" : [ "obj-81", 0 ],
					"destination" : [ "obj-126", 0 ],
					"hidden" : 0,
					"midpoints" : [  ]
				}

			}
, 			{
				"patchline" : 				{
					"source" : [ "obj-81", 0 ],
					"destination" : [ "obj-126", 1 ],
					"hidden" : 0,
					"midpoints" : [  ]
				}

			}
, 			{
				"patchline" : 				{
					"source" : [ "obj-83", 0 ],
					"destination" : [ "obj-131", 0 ],
					"hidden" : 0,
					"midpoints" : [  ]
				}

			}
, 			{
				"patchline" : 				{
					"source" : [ "obj-91", 0 ],
					"destination" : [ "obj-130", 0 ],
					"hidden" : 0,
					"midpoints" : [  ]
				}

			}
, 			{
				"patchline" : 				{
					"source" : [ "obj-87", 0 ],
					"destination" : [ "obj-129", 0 ],
					"hidden" : 0,
					"midpoints" : [  ]
				}

			}
, 			{
				"patchline" : 				{
					"source" : [ "obj-87", 0 ],
					"destination" : [ "obj-129", 1 ],
					"hidden" : 0,
					"midpoints" : [  ]
				}

			}
, 			{
				"patchline" : 				{
					"source" : [ "obj-91", 0 ],
					"destination" : [ "obj-130", 1 ],
					"hidden" : 0,
					"midpoints" : [  ]
				}

			}
, 			{
				"patchline" : 				{
					"source" : [ "obj-83", 0 ],
					"destination" : [ "obj-131", 1 ],
					"hidden" : 0,
					"midpoints" : [  ]
				}

			}
, 			{
				"patchline" : 				{
					"source" : [ "obj-89", 0 ],
					"destination" : [ "obj-128", 0 ],
					"hidden" : 0,
					"midpoints" : [  ]
				}

			}
, 			{
				"patchline" : 				{
					"source" : [ "obj-89", 0 ],
					"destination" : [ "obj-128", 1 ],
					"hidden" : 0,
					"midpoints" : [  ]
				}

			}
, 			{
				"patchline" : 				{
					"source" : [ "obj-85", 0 ],
					"destination" : [ "obj-127", 0 ],
					"hidden" : 0,
					"midpoints" : [  ]
				}

			}
, 			{
				"patchline" : 				{
					"source" : [ "obj-85", 0 ],
					"destination" : [ "obj-127", 1 ],
					"hidden" : 0,
					"midpoints" : [  ]
				}

			}
, 			{
				"patchline" : 				{
					"source" : [ "obj-139", 0 ],
					"destination" : [ "obj-77", 0 ],
					"hidden" : 0,
					"midpoints" : [  ]
				}

			}
, 			{
				"patchline" : 				{
					"source" : [ "obj-140", 0 ],
					"destination" : [ "obj-81", 0 ],
					"hidden" : 0,
					"midpoints" : [  ]
				}

			}
, 			{
				"patchline" : 				{
					"source" : [ "obj-141", 0 ],
					"destination" : [ "obj-85", 0 ],
					"hidden" : 0,
					"midpoints" : [  ]
				}

			}
, 			{
				"patchline" : 				{
					"source" : [ "obj-142", 0 ],
					"destination" : [ "obj-89", 0 ],
					"hidden" : 0,
					"midpoints" : [  ]
				}

			}
, 			{
				"patchline" : 				{
					"source" : [ "obj-143", 0 ],
					"destination" : [ "obj-87", 0 ],
					"hidden" : 0,
					"midpoints" : [  ]
				}

			}
, 			{
				"patchline" : 				{
					"source" : [ "obj-144", 0 ],
					"destination" : [ "obj-91", 0 ],
					"hidden" : 0,
					"midpoints" : [  ]
				}

			}
, 			{
				"patchline" : 				{
					"source" : [ "obj-145", 0 ],
					"destination" : [ "obj-83", 0 ],
					"hidden" : 0,
					"midpoints" : [  ]
				}

			}
, 			{
				"patchline" : 				{
					"source" : [ "obj-138", 0 ],
					"destination" : [ "obj-146", 0 ],
					"hidden" : 0,
					"midpoints" : [  ]
				}

			}
, 			{
				"patchline" : 				{
					"source" : [ "obj-131", 0 ],
					"destination" : [ "obj-133", 6 ],
					"hidden" : 0,
					"midpoints" : [  ]
				}

			}
, 			{
				"patchline" : 				{
					"source" : [ "obj-130", 0 ],
					"destination" : [ "obj-133", 5 ],
					"hidden" : 0,
					"midpoints" : [  ]
				}

			}
, 			{
				"patchline" : 				{
					"source" : [ "obj-129", 0 ],
					"destination" : [ "obj-133", 4 ],
					"hidden" : 0,
					"midpoints" : [  ]
				}

			}
, 			{
				"patchline" : 				{
					"source" : [ "obj-128", 0 ],
					"destination" : [ "obj-133", 3 ],
					"hidden" : 0,
					"midpoints" : [  ]
				}

			}
, 			{
				"patchline" : 				{
					"source" : [ "obj-127", 0 ],
					"destination" : [ "obj-133", 2 ],
					"hidden" : 0,
					"midpoints" : [  ]
				}

			}
, 			{
				"patchline" : 				{
					"source" : [ "obj-126", 0 ],
					"destination" : [ "obj-133", 1 ],
					"hidden" : 0,
					"midpoints" : [  ]
				}

			}
, 			{
				"patchline" : 				{
					"source" : [ "obj-122", 0 ],
					"destination" : [ "obj-133", 0 ],
					"hidden" : 0,
					"midpoints" : [  ]
				}

			}
, 			{
				"patchline" : 				{
					"source" : [ "obj-133", 0 ],
					"destination" : [ "obj-1", 0 ],
					"hidden" : 0,
					"midpoints" : [ 140.5, 252.0, 481.5, 252.0 ]
				}

			}
, 			{
				"patchline" : 				{
					"source" : [ "obj-1", 0 ],
					"destination" : [ "obj-138", 0 ],
					"hidden" : 0,
					"midpoints" : [  ]
				}

			}
, 			{
				"patchline" : 				{
					"source" : [ "obj-21", 0 ],
					"destination" : [ "obj-9", 0 ],
					"hidden" : 0,
					"midpoints" : [  ]
				}

			}
, 			{
				"patchline" : 				{
					"source" : [ "obj-20", 0 ],
					"destination" : [ "obj-11", 0 ],
					"hidden" : 0,
					"midpoints" : [  ]
				}

			}
, 			{
				"patchline" : 				{
					"source" : [ "obj-19", 0 ],
					"destination" : [ "obj-10", 0 ],
					"hidden" : 0,
					"midpoints" : [  ]
				}

			}
, 			{
				"patchline" : 				{
					"source" : [ "obj-18", 0 ],
					"destination" : [ "obj-12", 0 ],
					"hidden" : 0,
					"midpoints" : [  ]
				}

			}
, 			{
				"patchline" : 				{
					"source" : [ "obj-17", 0 ],
					"destination" : [ "obj-14", 0 ],
					"hidden" : 0,
					"midpoints" : [  ]
				}

			}
, 			{
				"patchline" : 				{
					"source" : [ "obj-16", 0 ],
					"destination" : [ "obj-15", 0 ],
					"hidden" : 0,
					"midpoints" : [  ]
				}

			}
, 			{
				"patchline" : 				{
					"source" : [ "obj-12", 0 ],
					"destination" : [ "obj-6", 1 ],
					"hidden" : 0,
					"midpoints" : [  ]
				}

			}
, 			{
				"patchline" : 				{
					"source" : [ "obj-12", 0 ],
					"destination" : [ "obj-6", 0 ],
					"hidden" : 0,
					"midpoints" : [  ]
				}

			}
, 			{
				"patchline" : 				{
					"source" : [ "obj-10", 0 ],
					"destination" : [ "obj-5", 1 ],
					"hidden" : 0,
					"midpoints" : [  ]
				}

			}
, 			{
				"patchline" : 				{
					"source" : [ "obj-10", 0 ],
					"destination" : [ "obj-5", 0 ],
					"hidden" : 0,
					"midpoints" : [  ]
				}

			}
, 			{
				"patchline" : 				{
					"source" : [ "obj-9", 0 ],
					"destination" : [ "obj-3", 1 ],
					"hidden" : 0,
					"midpoints" : [  ]
				}

			}
, 			{
				"patchline" : 				{
					"source" : [ "obj-11", 0 ],
					"destination" : [ "obj-4", 1 ],
					"hidden" : 0,
					"midpoints" : [  ]
				}

			}
, 			{
				"patchline" : 				{
					"source" : [ "obj-11", 0 ],
					"destination" : [ "obj-4", 0 ],
					"hidden" : 0,
					"midpoints" : [  ]
				}

			}
, 			{
				"patchline" : 				{
					"source" : [ "obj-9", 0 ],
					"destination" : [ "obj-3", 0 ],
					"hidden" : 0,
					"midpoints" : [  ]
				}

			}
, 			{
				"patchline" : 				{
					"source" : [ "obj-14", 0 ],
					"destination" : [ "obj-7", 1 ],
					"hidden" : 0,
					"midpoints" : [  ]
				}

			}
, 			{
				"patchline" : 				{
					"source" : [ "obj-14", 0 ],
					"destination" : [ "obj-7", 0 ],
					"hidden" : 0,
					"midpoints" : [  ]
				}

			}
, 			{
				"patchline" : 				{
					"source" : [ "obj-15", 0 ],
					"destination" : [ "obj-8", 0 ],
					"hidden" : 0,
					"midpoints" : [  ]
				}

			}
, 			{
				"patchline" : 				{
					"source" : [ "obj-15", 0 ],
					"destination" : [ "obj-8", 1 ],
					"hidden" : 0,
					"midpoints" : [  ]
				}

			}
, 			{
				"patchline" : 				{
					"source" : [ "obj-8", 0 ],
					"destination" : [ "obj-1", 1 ],
					"hidden" : 0,
					"midpoints" : [  ]
				}

			}
, 			{
				"patchline" : 				{
					"source" : [ "obj-7", 0 ],
					"destination" : [ "obj-1", 2 ],
					"hidden" : 0,
					"midpoints" : [  ]
				}

			}
, 			{
				"patchline" : 				{
					"source" : [ "obj-6", 0 ],
					"destination" : [ "obj-1", 3 ],
					"hidden" : 0,
					"midpoints" : [  ]
				}

			}
, 			{
				"patchline" : 				{
					"source" : [ "obj-5", 0 ],
					"destination" : [ "obj-1", 4 ],
					"hidden" : 0,
					"midpoints" : [  ]
				}

			}
, 			{
				"patchline" : 				{
					"source" : [ "obj-4", 0 ],
					"destination" : [ "obj-1", 5 ],
					"hidden" : 0,
					"midpoints" : [  ]
				}

			}
, 			{
				"patchline" : 				{
					"source" : [ "obj-3", 0 ],
					"destination" : [ "obj-1", 6 ],
					"hidden" : 0,
					"midpoints" : [  ]
				}

			}
 ]
	}

}
